<?xml version="1.0" encoding="UTF-8"?>
<svg version="1.1" xmlns="http://www.w3.org/2000/svg" width="277" height="298">
<path d="M0 0 C8.92719983 6.55642332 16.01541653 15.76801269 18.77734375 26.6328125 C19.0625 28.5625 19.0625 28.5625 19.1875 31.3125 C19.78175781 31.168125 20.37601563 31.02375 20.98828125 30.875 C34.1432789 27.92893521 46.34832464 28.7710235 58.0625 36.0625 C67.1881523 42.74795956 73.19992183 51.71933497 75.5625 62.8125 C76.37834781 68.10795664 76.03345968 73.04239986 75.1875 78.3125 C75.79335937 78.44785156 76.39921875 78.58320312 77.0234375 78.72265625 C84.20398007 80.56750334 89.44333823 83.67261216 95.1875 88.3125 C95.83847656 88.83714844 96.48945313 89.36179687 97.16015625 89.90234375 C105.37557518 97.28719285 109.93010324 108.59115594 110.5625 119.5 C110.22724915 131.63189019 104.57644534 141.68254019 96.625 150.4375 C85.67381778 160.75293944 72.42634834 163.38953369 58.1875 166.3125 C20.38001409 173.98815122 20.38001409 173.98815122 -8.0859375 198.56640625 C-11.92720608 204.67593523 -13.86732606 209.12496429 -12.8125 216.3125 C-10.41221372 224.66549625 -3.68010323 230.9134914 3.5 235.3671875 C15.06548562 241.70877355 26.073403 242.55115133 39.04492188 242.88427734 C46.32201508 243.10860684 53.25984316 244.00328105 60.1875 246.3125 C60.375 249.6875 60.375 249.6875 60.1875 253.3125 C55.00579073 256.76697284 48.6432977 255.70482471 42.5625 255.6875 C41.85843018 255.68695618 41.15436035 255.68641235 40.42895508 255.68585205 C29.53592413 255.64697947 19.53606664 254.89128696 9.1875 251.3125 C8.53942383 251.09287598 7.89134766 250.87325195 7.22363281 250.64697266 C-0.65325523 247.9256908 -7.75613423 244.45573287 -14.640625 239.73046875 C-16.84370531 238.16107775 -16.84370531 238.16107775 -19.8125 237.3125 C-19.57273438 238.97345703 -19.57273438 238.97345703 -19.328125 240.66796875 C-17.66346871 254.08852218 -16.50293453 270.83738577 -24.8125 282.3125 C-27.8125 281.3125 -27.8125 281.3125 -28.9453125 279.60546875 C-29.27273437 278.91066406 -29.60015625 278.21585937 -29.9375 277.5 C-30.43636719 276.46939453 -30.43636719 276.46939453 -30.9453125 275.41796875 C-32.9608785 270.52431976 -33.00417288 265.80207197 -33 260.5625 C-33.00064453 259.72936279 -33.00128906 258.89622559 -33.00195312 258.0378418 C-32.93506751 250.02752937 -32.03399871 242.21952289 -30.8125 234.3125 C-40.20262524 237.50434462 -49.03805286 241.59214643 -57.96484375 245.890625 C-73.92333223 253.4228794 -92.08592531 259.18802804 -109.5625 253.5 C-113.24644674 252.12641414 -116.48396496 250.40181426 -119.8125 248.3125 C-119.1525 246.6625 -118.4925 245.0125 -117.8125 243.3125 C-116.56597656 243.34730469 -115.31945312 243.38210937 -114.03515625 243.41796875 C-90.23529746 243.88144959 -63.35072985 239.6775093 -44.8125 223.3125 C-41.91661445 218.96867168 -42.27119786 215.41427263 -42.8125 210.3125 C-45.56157103 197.53556758 -50.97134579 186.91773394 -61.8125 179.3125 C-74.99484389 171.4366081 -90.67793243 169.16043337 -105.49829102 166.08227539 C-135.26832434 159.87058093 -135.26832434 159.87058093 -146.8125 150.3125 C-147.46992188 149.77882812 -148.12734375 149.24515625 -148.8046875 148.6953125 C-157.07227731 141.27931992 -160.08884147 130.56996076 -161.03125 119.81640625 C-161.43834991 108.94344612 -157.78695962 100.54550872 -150.8125 92.3125 C-145.45763153 86.67012182 -140.0508163 82.46898515 -132.94140625 79.28515625 C-130.59049937 78.27916444 -130.59049937 78.27916444 -127.8125 76.3125 C-127.6958047 73.58362521 -127.73063243 71.02823382 -127.875 68.3125 C-128.05693028 61.12550226 -127.44925249 55.67116973 -123.8125 49.3125 C-123.37679687 48.53519531 -122.94109375 47.75789063 -122.4921875 46.95703125 C-116.46093162 37.11916305 -108.74716002 31.8407503 -97.8125 28.3125 C-86.3715118 26.07000918 -76.86177406 28.47089565 -65.8125 31.3125 C-65.60625 30.054375 -65.4 28.79625 -65.1875 27.5 C-62.54590988 15.81463258 -55.00121776 5.35745788 -44.9375 -1.0625 C-30.35134545 -9.06709701 -14.3308373 -8.83981201 0 0 Z M-45.8125 13.3125 C-53.03894777 22.74252825 -57.40607246 33.52244783 -58.8125 45.3125 C-59.70001953 44.89677734 -59.70001953 44.89677734 -60.60546875 44.47265625 C-61.39566406 44.11042969 -62.18585938 43.74820313 -63 43.375 C-63.77730469 43.01535156 -64.55460937 42.65570313 -65.35546875 42.28515625 C-75.49368608 38.2717761 -91.16907062 38.52802402 -101.375 42 C-108.49214791 45.24023507 -112.9311083 50.95559291 -116 58.0625 C-118.37497388 67.56239552 -118.66778022 77.50334179 -113.8125 86.3125 C-115.111875 86.23 -116.41125 86.1475 -117.75 86.0625 C-127.02848095 86.10612922 -133.46191529 90.97534148 -139.8125 97.3125 C-140.37066406 97.8590625 -140.92882812 98.405625 -141.50390625 98.96875 C-147.18313715 105.00382244 -149.96228546 111.92524724 -150.4375 120.1875 C-150.11189271 128.62072893 -146.40649728 136.1825316 -140.4375 142.125 C-125.33906177 153.90006283 -103.26907442 157.45924477 -85.04785156 160.99438477 C-67.6312491 164.5051583 -54.69433935 171.24787249 -41.8125 183.3125 C-39.49858941 185.33665434 -37.15752136 187.32432971 -34.8125 189.3125 C-31.0814321 177.03899235 -32.73924247 162.32484286 -32.78515625 149.609375 C-32.78774822 148.86334518 -32.79034019 148.11731537 -32.79301071 147.34867859 C-32.81951115 140.32466401 -32.85885593 133.30074349 -32.90844727 126.27685547 C-32.93530078 122.39703274 -32.9522856 118.51726561 -32.96331596 114.63736725 C-32.96948107 113.17501982 -32.97942933 111.71268283 -32.99339485 110.2503891 C-33.0127294 108.21354229 -33.01846611 106.17658033 -33.02368164 104.13964844 C-33.03113907 102.98672302 -33.0385965 101.83379761 -33.04627991 100.64593506 C-32.43539368 91.93539368 -32.43539368 91.93539368 -29.8125 89.3125 C-27.81291636 89.27169217 -25.81204746 89.26995644 -23.8125 89.3125 C-23.7970388 91.08109627 -23.7970388 91.08109627 -23.78126526 92.88542175 C-23.68352761 103.99460521 -23.5807931 115.1037327 -23.47316074 126.21282482 C-23.41798613 131.9241717 -23.36457482 137.63552375 -23.31518555 143.34692383 C-23.2674615 148.85826864 -23.21511573 154.36955191 -23.15955925 159.88082314 C-23.13917214 161.98394553 -23.12045309 164.08708477 -23.10342598 166.19023705 C-23.07930132 169.13494329 -23.04925773 172.07953391 -23.01782227 175.02416992 C-23.0120668 175.8945137 -23.00631134 176.76485748 -23.00038147 177.66157532 C-22.9517041 181.67069793 -22.80548921 185.40004104 -21.8125 189.3125 C-18.58536923 187.80551062 -15.75874329 185.97020628 -12.83984375 183.93359375 C11.20285811 167.37062225 32.51694209 158.711921 61.26733398 154.18652344 C75.41119031 151.8694002 86.53866859 147.09653279 95.1875 135.3125 C99.52145332 128.73684669 99.78917317 120.81402216 98.625 113.1875 C96.66555453 104.95782901 91.28745074 97.85699537 84.1875 93.3125 C77.01412761 89.56854751 70.28362333 87.50952955 62.1875 87.3125 C62.67089844 86.32636719 62.67089844 86.32636719 63.1640625 85.3203125 C66.07097628 76.7770926 65.20700471 65.03042137 61.63671875 56.8125 C57.35857422 49.43241241 52.02679421 43.53082071 43.76953125 40.8671875 C33.84866012 38.73592623 22.26962612 40.77143694 13.1875 45.3125 C12.76791016 43.93191406 12.76791016 43.93191406 12.33984375 42.5234375 C8.16167113 29.16360158 3.53587955 14.5357523 -9.0859375 6.9453125 C-21.00324232 1.35304972 -36.88592184 3.0201066 -45.8125 13.3125 Z " fill="#000000" transform="translate(163.8125,9.6875)"/>
</svg>
