<?xml version="1.0" encoding="UTF-8"?>
<svg version="1.1" xmlns="http://www.w3.org/2000/svg" width="211" height="296">
<path d="M0 0 C3.02863213 12.59988622 1.25215541 26.67113215 -2 39 C-2.29390625 40.14082031 -2.5878125 41.28164063 -2.890625 42.45703125 C-9.82282174 65.91786125 -24.31112677 86.57222178 -40 105 C-40.85263911 106.03687604 -41.70414695 107.07468308 -42.5546875 108.11328125 C-48.59877743 115.41495253 -55.05110396 122.23211655 -61.75 128.9375 C-62.54196777 129.73027344 -63.33393555 130.52304688 -64.14990234 131.33984375 C-68.94444791 136.08926182 -73.87634908 140.60974499 -79 145 C-80.08292257 145.94950524 -81.16499779 146.89997803 -82.24609375 147.8515625 C-90.50173687 155.05277453 -99.03440167 161.81763296 -107.81445312 168.36767578 C-109.24915782 169.43921685 -110.68028276 170.51557111 -112.10742188 171.59716797 C-121.49251121 178.70158438 -131.18760709 185.13944148 -141.25 191.25 C-142.8577832 192.23492432 -142.8577832 192.23492432 -144.49804688 193.23974609 C-145.51447266 193.84641113 -146.53089844 194.45307617 -147.578125 195.078125 C-148.93019043 195.88878418 -148.93019043 195.88878418 -150.30957031 196.71582031 C-154.44276574 198.68865225 -157.61689123 199.46103626 -162 198 C-159.22536285 191.67999317 -153.54192975 187.27357166 -148.375 182.875 C-143.75807383 178.91502775 -139.52702232 174.58138227 -135.27490234 170.23779297 C-131.67530693 166.58482459 -127.94809323 163.16316621 -124.06640625 159.8125 C-120.45118556 156.64149357 -116.98452221 153.31315227 -113.5 150 C-106.20841669 143.06701914 -98.74345072 136.42541656 -91 130 C-84.36867765 124.44165285 -78.08822404 118.53518113 -71.80859375 112.5859375 C-68.56780098 109.51894629 -65.26778806 106.53189265 -61.9375 103.5625 C-57.5894709 99.62149294 -53.75326477 95.50077033 -50 91 C-49.16855469 90.05640625 -48.33710938 89.1128125 -47.48046875 88.140625 C-33.54999378 72.25963632 -22.35904419 54.59001189 -17 34 C-33.68217566 44.80369472 -47.25526082 59.97769118 -61.19494629 73.99932861 C-63.52675558 76.34200062 -65.86417951 78.67902875 -68.20172787 81.01597214 C-70.47642497 83.29094263 -72.74849633 85.56852047 -75.01971626 87.84696198 C-76.09348911 88.92388225 -77.16783805 90.00022848 -78.2428112 91.07595062 C-83.53239672 96.37327512 -88.75710158 101.68748684 -93.61134338 107.39239502 C-95.62128057 109.71923737 -97.79805115 111.85599717 -100 114 C-103.60719127 117.56359983 -106.99477889 121.21924856 -110.2890625 125.0703125 C-112.67310624 127.75916548 -115.22816028 130.25477545 -117.8125 132.75 C-119.7028512 134.69436124 -121.48168855 136.67912117 -123.2578125 138.7265625 C-127.0164495 143.05390111 -130.92914064 147.21878977 -134.875 151.375 C-136.29746814 152.88355551 -137.71934804 154.39266592 -139.140625 155.90234375 C-141.27359041 158.1677248 -143.40822226 160.43138825 -145.546875 162.69140625 C-171.7120092 190.97139152 -186.37138267 220.12600588 -187.5 258.8125 C-187.76777105 267.90183969 -188.22266501 276.93895323 -189 286 C-194.6640625 287.1328125 -194.6640625 287.1328125 -197.6875 285.9375 C-201.82865527 282.46788343 -203.19178108 278.19569303 -204 273 C-206.98123586 217.84713652 -175.53869039 164.23276584 -140.52734375 123.9296875 C-138.03670312 121.04254613 -135.63817759 118.09713333 -133.25 115.125 C-130.25920048 111.44770024 -127.17108756 108.03820583 -123.75512695 104.75610352 C-122.12210165 103.12216958 -120.6450809 101.43986573 -119.16015625 99.671875 C-114.03973199 93.78162983 -108.4737214 88.3246329 -102.94848633 82.81811523 C-101.06671726 80.94170525 -99.19035262 79.06001031 -97.31445312 77.17773438 C-91.94004204 71.800295 -86.58149734 66.46660864 -80.78686523 61.53735352 C-77.41947658 58.64017544 -74.2243389 55.5543054 -71 52.5 C-66.37184405 48.11590696 -61.69304249 43.81872857 -56.87939453 39.63867188 C-44.5208473 29.95559686 -44.5208473 29.95559686 -35 18 C-48.6213592 19.94590846 -61.03812095 28.09141576 -72 36 C-72.69464355 36.49773926 -73.38928711 36.99547852 -74.10498047 37.50830078 C-84.72211162 45.14225502 -95.07338708 53.05467393 -105.11669922 61.4296875 C-106.37044492 62.47507152 -107.62728312 63.51675795 -108.88720703 64.5546875 C-130.19290935 82.12088518 -145.42875608 104.43353633 -160.5144043 127.33374023 C-174.74097756 148.92374829 -174.74097756 148.92374829 -185 157 C-179.2604814 111.1828084 -141.94097278 64.34767742 -106.82421875 36.2734375 C-105.03102528 34.82995396 -103.25957681 33.35868857 -101.51953125 31.8515625 C-78.45215185 12.03865058 -31.29536856 -15.64768428 0 0 Z " fill="#000000" transform="translate(207,6)"/>
</svg>
