<?xml version="1.0" encoding="UTF-8"?>
<svg version="1.1" xmlns="http://www.w3.org/2000/svg" width="539" height="728">
<path d="M0 0 C0.7101123 0.30341309 1.42022461 0.60682617 2.15185547 0.91943359 C24.74586161 10.68084497 45.5089328 23.47046177 64.10546875 39.5390625 C66.41685359 41.5042075 68.73447197 43.3454486 71.1875 45.125 C106.74726452 71.3112701 129.60095631 113.74462212 145 154 C145.27473145 154.69915527 145.54946289 155.39831055 145.83251953 156.11865234 C154.83030508 179.16023659 158.43846236 205.43348974 158.3125 230.0625 C158.31034485 230.82690399 158.3081897 231.59130798 158.30596924 232.37887573 C158.2485879 245.12499483 157.49390747 257.47172932 155 270 C154.80664062 270.99161133 154.61328125 271.98322266 154.4140625 273.00488281 C145.63221542 316.84635704 126.41818087 356.64273889 104 395 C103.33613281 396.14017578 102.67226563 397.28035156 101.98828125 398.45507812 C100.22227293 401.48563022 98.44911616 404.51190175 96.67059326 407.53512573 C95.65994333 409.25310083 94.65146567 410.97235325 93.64306641 412.69165039 C90.18375832 418.52928788 86.56902234 424.16115656 82.62597656 429.68286133 C80.11791745 433.25703386 77.85213534 436.97133366 75.5625 440.6875 C68.45331305 452.07825212 60.73662296 463.03028092 53 474 C51.92278543 475.53488145 50.84593352 477.07001753 49.76953125 478.60546875 C44.1989762 486.53879503 38.54834993 494.41180541 32.86132812 502.26196289 C28.63303779 508.10497906 24.46080041 513.98571932 20.31079102 519.88452148 C17.2084417 524.29333937 14.08187727 528.68358954 10.9375 533.0625 C6.98553535 538.57101305 3.14485377 544.15013058 -0.67724609 549.74926758 C-4.26258489 554.97898626 -7.95813921 560.12226338 -11.6875 565.25 C-15.85664531 570.98604005 -19.89869016 576.77171681 -23.79296875 582.69921875 C-31.01965687 593.50727443 -38.62940647 604.06491801 -46.125 614.6875 C-46.61121826 615.3774707 -47.09743652 616.06744141 -47.59838867 616.77832031 C-50.05823686 620.26538933 -52.53099483 623.74207716 -55.02734375 627.203125 C-61.18182965 635.76876897 -66.86027156 644.50372379 -72.29296875 653.54296875 C-75.32046442 658.56628021 -78.51582039 663.47273902 -81.72802734 668.37915039 C-84.90659166 673.25516495 -87.96675644 678.19395888 -90.99584961 683.1640625 C-95.89368694 691.1939993 -100.71832858 698.95921421 -107 706 C-112.55276678 705.60153757 -116.13925185 704.40938456 -119.84375 700.1484375 C-124.35659436 694.82271071 -127.93278344 689.04670074 -131.5 683.0625 C-132.54347837 681.34204102 -133.58696892 679.6215893 -134.63116455 677.90156555 C-135.7084197 676.12407616 -136.78161807 674.34420126 -137.85351562 672.56347656 C-146.96423051 657.43026712 -156.08662283 642.4029422 -166.47851562 628.10888672 C-169.3224937 624.16692867 -172.09348503 620.17364736 -174.875 616.1875 C-176.05714824 614.49729551 -177.23944051 612.80719175 -178.421875 611.1171875 C-180.21167409 608.557677 -182.00134475 605.99807672 -183.79101562 603.43847656 C-190.32850038 594.08951613 -196.8758133 584.74799345 -203.46142578 575.43286133 C-207.92426103 569.1165396 -212.3572322 562.77950417 -216.7890625 556.44140625 C-220.51284248 551.11820536 -224.24976159 545.80458881 -228 540.5 C-235.30053436 530.17196981 -242.54358566 519.80380306 -249.79101562 509.43847656 C-255.88790106 500.71959723 -261.98888008 492.00382817 -268.125 483.3125 C-268.86049072 482.26896362 -268.86049072 482.26896362 -269.61083984 481.2043457 C-272.00849805 477.80548067 -274.4173013 474.41573024 -276.8515625 471.04296875 C-284.97720985 459.73897815 -292.4569755 448.05644292 -299.90478516 436.29785156 C-302.01252491 432.98028588 -304.13450156 429.67229334 -306.26171875 426.3671875 C-317.92573278 408.24437461 -328.81086657 389.99275685 -339 371 C-339.46696289 370.13600586 -339.93392578 369.27201172 -340.41503906 368.38183594 C-360.1742059 331.77050122 -374.51906962 295.32216038 -380 254 C-380.10675049 253.19675293 -380.21350098 252.39350586 -380.32348633 251.56591797 C-387.79846051 190.55468615 -363.63318227 128.26379701 -327.07421875 80.5546875 C-324.25099089 77.07749161 -321.2705128 73.76891244 -318.2265625 70.484375 C-315.97461492 67.9716756 -313.93584881 65.35811306 -311.875 62.6875 C-306.58091191 56.14828667 -300.30996917 50.92754626 -293.86816406 45.56689453 C-292.13924411 44.11678891 -290.43652072 42.64258446 -288.7421875 41.15234375 C-247.05586914 4.6703017 -193.64754874 -15.14073698 -139 -21 C-137.18628906 -21.19722656 -137.18628906 -21.19722656 -135.3359375 -21.3984375 C-90.41224886 -25.3654458 -41.43652879 -18.01549103 0 0 Z M-221 32 C-221.89122559 32.44279297 -222.78245117 32.88558594 -223.70068359 33.34179688 C-239.99330074 41.50384572 -254.17836248 50.90204434 -268.19335938 62.51367188 C-270.55999545 64.46070977 -272.96581955 66.35599022 -275.375 68.25 C-284.32934701 75.43447608 -291.99618943 82.88483001 -299 92 C-299.46164551 92.59731934 -299.92329102 93.19463867 -300.39892578 93.81005859 C-336.58709182 140.7675172 -357.18149249 197.00480158 -350.31640625 256.9453125 C-348.50965651 270.01340601 -345.2967567 282.54583998 -341 295 C-340.70561035 295.87817383 -340.4112207 296.75634766 -340.10791016 297.66113281 C-333.93839669 315.88204266 -325.56526459 332.9794986 -316.9387207 350.13037109 C-316.06992765 351.86072666 -315.20753275 353.59429068 -314.34570312 355.328125 C-302.72436075 378.66054985 -288.38365424 400.17403309 -273.67411804 421.63381958 C-269.61875926 427.55055771 -265.59287475 433.48709474 -261.56921387 439.42541504 C-259.58652389 442.35091129 -257.60192022 445.27510811 -255.6171875 448.19921875 C-255.03608215 449.05539291 -255.03608215 449.05539291 -254.4432373 449.92886353 C-249.77571442 456.80484933 -245.10144911 463.67624967 -240.42675781 470.54736328 C-236.64764903 476.10305917 -232.87208014 481.66112777 -229.1015625 487.22265625 C-213.78398682 509.81602883 -198.29705595 532.27670324 -182.53930664 554.56616211 C-178.07615116 560.8827556 -173.64300077 567.22016265 -169.2109375 573.55859375 C-165.48715743 578.88179477 -161.75021708 584.195396 -158 589.5 C-132.02581081 626.24844158 -132.02581081 626.24844158 -126.9453125 634.2265625 C-125.12471014 637.17878269 -125.12471014 637.17878269 -122 639 C-119.68925809 631.2133823 -119.90933964 622.18779918 -120.0625 614.125 C-120.13256542 607.76461651 -119.56347038 601.51533505 -119 595.1875 C-118.26099063 586.50004887 -117.73491352 577.84457712 -117.625 569.125 C-117.59921875 568.17004639 -117.5734375 567.21509277 -117.546875 566.23120117 C-117.50557436 551.5036505 -125.10559298 539.70905564 -134.8828125 529.2734375 C-136.66323807 527.36161521 -138.31520975 525.41966167 -139.9375 523.375 C-140.618125 522.59125 -141.29875 521.8075 -142 521 C-142.66 521 -143.32 521 -144 521 C-144.33 520.01 -144.66 519.02 -145 518 C-146.9690095 516.12432038 -146.9690095 516.12432038 -149.5 514.1875 C-150.98693359 512.99833984 -150.98693359 512.99833984 -152.50390625 511.78515625 C-153.05836426 511.34445801 -153.61282227 510.90375977 -154.18408203 510.44970703 C-160.52669381 505.38619147 -166.77766658 500.21020344 -173 495 C-173.57991699 494.51772949 -174.15983398 494.03545898 -174.75732422 493.53857422 C-186.92100119 483.32550203 -195.01342715 470.91028737 -203.08837891 457.4074707 C-205.53696484 453.32634814 -208.05711689 449.42186865 -210.9375 445.625 C-215.30891678 439.82047957 -218.93664973 433.59968346 -222.61303711 427.34228516 C-223.09393799 426.52550293 -223.57483887 425.7087207 -224.0703125 424.8671875 C-224.54500977 424.05991211 -225.01970703 423.25263672 -225.50878906 422.42089844 C-227.48719279 419.20906947 -229.66610008 416.15288986 -231.89404297 413.10986328 C-233.22075939 410.57885151 -233.20723616 408.81828882 -233 406 C-223.62751628 406.04506002 -215.48707435 409.41524712 -207 413 C-206.24477051 413.31469238 -205.48954102 413.62938477 -204.71142578 413.95361328 C-191.27132503 419.64532855 -178.01380205 426.95988005 -167.62109375 437.38671875 C-166.14490496 439.23513225 -166.14490496 439.23513225 -164 439 C-163.73960937 439.58523438 -163.47921875 440.17046875 -163.2109375 440.7734375 C-161.92037175 443.14641323 -160.50805862 444.69426901 -158.625 446.625 C-152.71366566 453.13931198 -148.06864796 460.53197224 -143.33642578 467.91992188 C-142.25110656 469.60916553 -141.14262707 471.28351275 -140.02734375 472.953125 C-130.12619814 488.5889767 -124.51707343 507.43955896 -119 525 C-118.34 525 -117.68 525 -117 525 C-116.95295939 515.94830908 -116.9177767 506.89666235 -116.89637566 497.84487438 C-116.88608688 493.63848133 -116.87221344 489.43217387 -116.84912109 485.22583008 C-116.76265122 469.00222575 -116.70253572 452.80711284 -117.8203125 436.61328125 C-117.92471146 435.00274117 -117.92471146 435.00274117 -118.03121948 433.35966492 C-118.73456668 424.62327559 -120.94793985 418.24060235 -125.6875 410.85546875 C-126.40105854 409.72658132 -127.11325637 408.59683286 -127.82421875 407.46630859 C-128.18563965 406.89410583 -128.54706055 406.32190308 -128.91943359 405.73236084 C-147.25995681 376.32888871 -166.70509963 342.46796435 -158.87329102 306.45458984 C-153.33469564 284.72896781 -140.93104143 267.50706174 -126.9375 250.4921875 C-126.380625 249.79351562 -125.82375 249.09484375 -125.25 248.375 C-124.78078125 247.80523437 -124.3115625 247.23546875 -123.828125 246.6484375 C-122.78308314 244.96988115 -122.78308314 244.96988115 -123.359375 242.7890625 C-123.57078125 242.19867188 -123.7821875 241.60828125 -124 241 C-125.81929115 240.23821477 -125.81929115 240.23821477 -128 240 C-129.79160818 241.06978515 -129.79160818 241.06978515 -131.4375 242.8125 C-135.39631182 246.50739103 -139.56354231 249.82574581 -143.87548828 253.09057617 C-146.67579071 255.21258668 -149.44949905 257.3509412 -152.1640625 259.58203125 C-172.51142174 276.14869535 -195.96742348 282.59966742 -222 281 C-234.15810609 279.63133119 -245.12532471 275.41428831 -256 270 C-256.88913086 269.56091309 -257.77826172 269.12182617 -258.69433594 268.66943359 C-270.29822325 262.8949223 -281.53062175 256.85332022 -292.10205078 249.33886719 C-294.25831531 247.81777705 -296.43856232 246.33469691 -298.62109375 244.8515625 C-300.18552849 243.77696213 -301.74934149 242.70145599 -303.3125 241.625 C-304.04903809 241.12484375 -304.78557617 240.6246875 -305.54443359 240.109375 C-306.22715332 239.63242187 -306.90987305 239.15546875 -307.61328125 238.6640625 C-308.21954346 238.24592285 -308.82580566 237.8277832 -309.45043945 237.39697266 C-311.27982696 235.74772808 -312.09678832 234.28141468 -313 232 C-312.984375 229.515625 -312.984375 229.515625 -312 227 C-310.09451198 225.32165625 -308.38593161 224.07566084 -306.25 222.75 C-305.61602295 222.34160889 -304.9820459 221.93321777 -304.32885742 221.51245117 C-294.14086245 215.05321366 -283.64345168 209.05666475 -273.2021637 203.01774597 C-270.3563511 201.37177991 -267.51875501 199.71417976 -264.69213867 198.03540039 C-241.49670717 184.28171642 -215.73404671 178.34242593 -189.09179688 184.45654297 C-171.65854082 188.98577126 -157.39455787 198.97706915 -143.86132812 210.43115234 C-141.12308029 212.73912462 -138.3423216 214.99229515 -135.5625 217.25 C-131.1300813 220.8699187 -131.1300813 220.8699187 -130 222 C-128.00041636 222.04080783 -125.99954746 222.04254356 -124 222 C-123.2659264 220.18803376 -123.2659264 220.18803376 -123 218 C-123.90089624 216.08629294 -123.90089624 216.08629294 -125.4375 214.3125 C-125.99953125 213.60738281 -126.5615625 212.90226563 -127.140625 212.17578125 C-128.94208537 210.06776985 -130.80428694 208.03495956 -132.6875 206 C-152.47981858 183.93270227 -161.45090993 158.31833294 -160.21777344 128.74853516 C-159.62055327 121.21097386 -157.46405878 114.11370911 -155 107 C-154.62174072 105.89253418 -154.62174072 105.89253418 -154.23583984 104.76269531 C-148.68591397 89.07407804 -139.67780407 75.10051313 -131 61 C-130.27801615 59.81786233 -129.55642304 58.63548595 -128.83520508 57.45288086 C-128.12591839 56.29274204 -127.41653026 55.13266524 -126.70703125 53.97265625 C-126.07514893 52.93890869 -125.4432666 51.90516113 -124.79223633 50.84008789 C-118.64267696 41.09511797 -118.64267696 41.09511797 -114 38 C-111.125 37.5625 -111.125 37.5625 -108 38 C-104.08749669 41.42979187 -101.19178984 45.35130874 -98.375 49.6875 C-97.94896484 50.33686523 -97.52292969 50.98623047 -97.08398438 51.65527344 C-77.64249552 81.49668537 -55.15114542 116.67168828 -62.54296875 153.96679688 C-65.45605125 166.92627928 -70.5670176 178.05539403 -78 189 C-78.47808105 189.70576172 -78.95616211 190.41152344 -79.44873047 191.13867188 C-84.82467985 199.01300932 -90.31666844 206.71856656 -96.57421875 213.921875 C-98.22841549 216.3329234 -98.79279076 218.08943302 -99 221 C-98.34 221.66 -97.68 222.32 -97 223 C-91.7405256 222.98128301 -88.75600914 219.48032053 -85.125 216.125 C-69.83546723 202.47167909 -53.76753492 191.09375137 -34 185 C-33.23945313 184.76539063 -32.47890625 184.53078125 -31.6953125 184.2890625 C0.05858939 175.48978848 32.03801228 191.30811805 59.16601562 206.35644531 C67.22683456 211.03127587 74.97412811 216.23579024 82.69165039 221.45239258 C84.09789091 222.39519095 85.51413026 223.32356361 86.94702148 224.2253418 C89.7904855 226.01664364 90.88729555 226.72120477 92.1875 229.9375 C91.92730477 234.1873555 90.09287554 235.17456977 87 238 C66.13986715 255.56642766 39.98233135 269.82995745 14 278 C12.71778564 278.41390991 12.71778564 278.41390991 11.40966797 278.83618164 C4.65208055 280.86996598 -1.58400678 281.50942907 -8.625 281.4375 C-9.6675293 281.43065186 -10.71005859 281.42380371 -11.78417969 281.41674805 C-43.53767449 280.76518156 -68.28686834 262.33779689 -90.6875 241.5 C-92.93722046 239.70322969 -92.93722046 239.70322969 -95.8125 240.25 C-96.534375 240.4975 -97.25625 240.745 -98 241 C-98.9036152 242.69555775 -98.9036152 242.69555775 -99 245 C-97.66379893 247.12382418 -96.34835026 248.90297165 -94.75 250.8125 C-93.81646159 251.98207888 -92.88421655 253.15269101 -91.953125 254.32421875 C-91.46521484 254.93056152 -90.97730469 255.5369043 -90.47460938 256.16162109 C-70.90366492 280.56049721 -59.9282416 305.28188428 -62 337 C-65.08316994 363.32667923 -82.83919123 388.71421787 -95.42675781 411.59326172 C-101.30183444 422.28734846 -103.44104546 430.3296823 -102.66746521 442.66056824 C-101.77884903 457.10667813 -101.66910644 471.57736539 -101.46777344 486.04547119 C-101.41669032 489.65991088 -101.36146704 493.27428737 -101.30664062 496.88867188 C-101.20048186 503.92572609 -101.09874807 510.96283755 -101 518 C-97.15449812 515.43633208 -96.64995088 512.70719915 -95.36328125 508.4921875 C-94.86269403 506.93096912 -94.36204063 505.36977195 -93.86132812 503.80859375 C-93.09219845 501.36627394 -92.32735561 498.92267976 -91.56567383 496.47802734 C-86.48631731 480.26745703 -79.39438904 466.02184056 -70.8125 451.375 C-70.17248047 450.27470459 -69.53246094 449.17440918 -68.87304688 448.04077148 C-66.92123752 444.69037416 -64.96167288 441.34462991 -63 438 C-62.39333496 436.96278809 -61.78666992 435.92557617 -61.16162109 434.85693359 C-57.90357067 429.29001443 -54.62171525 423.73842056 -51.30859375 418.20410156 C-50.21630644 416.36433107 -49.15154699 414.5082527 -48.09375 412.6484375 C-32.19078979 385.597814 3.64368653 364.96261878 32 354 C35.06963798 353.34312274 37.85058789 353.19996267 41 353 C37.28763088 365.34242201 30.37569183 375.95604572 23.81347656 386.93847656 C21.08292567 391.54821111 18.44970953 396.2114772 15.8125 400.875 C0.49205448 427.79046218 0.49205448 427.79046218 -9 440 C-9.66 440.86367188 -10.32 441.72734375 -11 442.6171875 C-18.90026244 452.63774096 -28.03622545 461.79742309 -37.765625 470.05078125 C-41.65097897 473.44027711 -45.38316156 476.9961578 -49.14453125 480.52197266 C-52.8399185 483.9850207 -56.54832575 487.43219822 -60.28149414 490.85449219 C-62.86412908 493.22581025 -65.43133478 495.61355932 -68 498 C-68.74894531 498.68191406 -69.49789063 499.36382813 -70.26953125 500.06640625 C-87.21543191 516.07643862 -98.34098383 540.40669825 -101.55859375 563.28125 C-101.68426224 564.17225403 -101.80993073 565.06325806 -101.93940735 565.98126221 C-103.42710393 577.27480775 -103.96490791 588.63231245 -104.50805664 600.00341797 C-104.6879509 603.75941433 -104.88286452 607.51440822 -105.08007812 611.26953125 C-105.7231447 623.85459609 -106.21334477 636.39798405 -106 649 C-105.34 649 -104.68 649 -104 649 C-102.69393527 647.30163744 -101.4816805 645.53107459 -100.30859375 643.73828125 C-99.93590363 643.17361145 -99.5632135 642.60894165 -99.17922974 642.02716064 C-98.36074181 640.78561827 -97.54538284 639.54200909 -96.73269653 638.29666138 C-94.48957662 634.86033972 -92.2229947 631.4394966 -89.9609375 628.015625 C-89.4805452 627.28698746 -89.00015289 626.55834991 -88.50520325 625.80763245 C-82.92328476 617.34827412 -77.24488606 608.9545576 -71.5625 600.5625 C-70.50080651 598.99406418 -69.43912032 597.42562342 -68.37744141 595.85717773 C-66.79413632 593.51816908 -65.21074451 591.17921965 -63.62692261 588.84056091 C-60.15272572 583.70899725 -56.69077925 578.5693409 -53.234375 573.42578125 C-44.76732744 560.83767614 -36.23076795 548.34967701 -27.12890625 536.20703125 C-23.95594744 531.96954525 -20.90774984 527.65097612 -17.875 523.3125 C-14.03059901 517.82221879 -10.10277402 512.41031034 -6.0625 507.0625 C2.69809699 495.45930773 11.27968455 483.74508162 19.27319336 471.59765625 C22.32109786 466.97788032 25.48008672 462.44772697 28.6875 457.9375 C40.13173407 441.79838572 51.10463744 425.44049478 61.5078125 408.609375 C64.04296467 404.51402326 66.63840581 400.46813157 69.29516602 396.45092773 C97.60967918 353.58149685 127.90557479 298.84909546 128.203125 246.09375 C128.21013931 245.25965607 128.21715363 244.42556213 128.22438049 243.56619263 C128.24183569 240.87740652 128.24823594 238.18884075 128.25 235.5 C128.25067474 234.58160339 128.25134949 233.66320679 128.25204468 232.71697998 C128.18392383 174.35587337 105.99402148 122.38496842 66 80 C65.2471875 79.19433594 64.494375 78.38867188 63.71875 77.55859375 C57.537394 71.14644037 50.82009521 65.75137484 43.75732422 60.36914062 C42.11593129 59.09032268 40.52459394 57.77168032 38.94140625 56.421875 C-0.01337594 23.62175065 -52.80850212 8.66297132 -103 7 C-103.77537109 6.97276855 -104.55074219 6.94553711 -105.34960938 6.91748047 C-144.91953207 5.70848398 -185.56082728 14.31869992 -221 32 Z " fill="#000000" transform="translate(381,22)"/>
</svg>
