<?xml version="1.0" encoding="UTF-8"?>
<svg version="1.1" xmlns="http://www.w3.org/2000/svg" width="440" height="440">
<rect width="440" height="440" fill="black" />
<g transform="translate(120,60)">
  <path d="M0 0 C6.12748692 0.09369246 10.84067444 0.94304101 16.4375 3.3125 C17.65179688 3.73015625 17.65179688 3.73015625 18.890625 4.15625 C25.41000966 6.47603104 30.19494932 9.85535017 35.4375 14.3125 C36.04335937 14.77398437 36.64921875 15.23546875 37.2734375 15.7109375 C48.33309837 24.36850008 57.03456018 40.01098706 61.4375 53.3125 C61.4375 54.6325 61.4375 55.9525 61.4375 57.3125 C62.0975 57.3125 62.7575 57.3125 63.4375 57.3125 C63.57865234 56.04599609 63.57865234 56.04599609 63.72265625 54.75390625 C64.52897359 50.87212714 65.99638459 47.69880142 67.875 44.25 C68.22771973 43.59950684 68.58043945 42.94901367 68.94384766 42.27880859 C79.0645859 24.16361161 94.12732712 9.19675569 114.4375 3.3125 C118.07559625 2.4347371 121.44717645 2.17739102 125.1875 2.1875 C126.63382812 2.18363281 126.63382812 2.18363281 128.109375 2.1796875 C130.4375 2.3125 130.4375 2.3125 131.4375 3.3125 C131.83072088 8.74170765 130.82660461 13.11551739 128.875 18.125 C128.606875 18.82423584 128.33875 19.52347168 128.0625 20.24389648 C125.65680208 26.247748 122.51760423 31.28723401 118.4375 36.3125 C117.97859375 36.93253906 117.5196875 37.55257812 117.046875 38.19140625 C106.96006606 51.14773842 88.47768581 59.92655189 72.4375 62.3125 C69.76443045 62.38894473 67.1128004 62.35784407 64.4375 62.3125 C64.63384033 62.9516333 64.83018066 63.5907666 65.0324707 64.24926758 C65.94007268 67.20730859 66.84504642 70.16614774 67.75 73.125 C68.2130957 74.63223633 68.2130957 74.63223633 68.68554688 76.16992188 C69.6153638 79.21384888 70.52999286 82.2618515 71.4375 85.3125 C71.72939209 86.28034424 72.02128418 87.24818848 72.32202148 88.24536133 C75.35433785 98.7097015 76.59124178 110.19235583 71.69140625 120.31640625 C69.54730117 123.7296078 68.01345484 125.28837462 64.4375 127.3125 C61.27484332 127.98302792 58.59417298 128.0301909 55.4375 127.3125 C51.13556135 124.22632662 48.95781248 120.314647 47.4375 115.3125 C46.97056391 112.01151132 46.91362449 108.7681342 46.9375 105.4375 C46.94249512 104.51638428 46.94749023 103.59526855 46.95263672 102.64624023 C47.30600336 88.52254095 52.59288733 75.98586974 58.4375 63.3125 C57.90125 63.35890625 57.365 63.4053125 56.8125 63.453125 C40.24351926 64.21617017 23.59480571 57.36660193 11.4375 46.3125 C0.60318647 36.10148031 -8.40194727 20.37250131 -8.9375 5.125 C-8.18354967 -0.52962745 -4.94812956 0.01601336 0 0 Z " fill="white" transform="translate(38.5625,55.6875)"/>
  <path d="M0 0 C12.03640786 -1.11966585 25.91595786 5.0417117 35.171875 12.4453125 C41.82716548 18.0963993 46.86430158 24.29167947 51 32 C51.34579102 32.64227539 51.69158203 33.28455078 52.04785156 33.94628906 C53.17495688 36.05948826 54.28011224 38.1824412 55.375 40.3125 C55.72143555 40.98240967 56.06787109 41.65231934 56.42480469 42.3425293 C58.3569681 46.22865836 59.52546802 49.62752673 60 54 C45.17932868 53.95795554 32.87996017 50.18652791 21 41 C20.18660156 40.40058594 19.37320313 39.80117187 18.53515625 39.18359375 C8.81978028 30.81549642 1.6004608 16.26342603 0.125 3.5625 C0.08375 2.386875 0.0425 1.21125 0 0 Z" fill="black" transform="translate(35,60)"/>
  <path d="M0 0 C-0.48452104 5.96690986 -1.71230941 10.49788645 -4.4375 15.8125 C-4.79094482 16.504646 -5.14438965 17.19679199 -5.50854492 17.90991211 C-14.43277942 34.62468356 -30.49626823 44.21088914 -48.23828125 49.69140625 C-51.15034241 50.20150122 -54.0537764 50.05665815 -57 50 C-52.44523678 31.78094711 -38.43528053 15.96902831 -23 6 C-15.23312515 1.81168525 -8.85737719 -0.17367406 0 0 Z " fill="black" transform="translate(164,63)"/>
  <path d="M0 0 C4.41110824 5.07717302 5.31486689 11.64668962 7 18 C7.23074219 18.75023437 7.46148437 19.50046875 7.69921875 20.2734375 C10.26220087 28.88941993 10.28840276 40.2471635 6.375 48.375 C4 51 4 51 0.5 52.1875 C-3 52 -3 52 -5.375 49.8125 C-10.6631889 40.65986536 -8.81227003 26.85720351 -6.25 17 C-4.50108946 11.19736466 -2.45188216 5.54281871 0 0 Z " fill="black" transform="translate(99,127)"/>
  <path d="M0 0 C6.0813791 3.18548429 8.40560665 9.84964619 10.7578125 15.97265625 C13.90204821 26.4017761 12.41725836 37.21892792 8 47 C5.51049601 51.47787407 2.43068233 55.3415906 -2 58 C-4.91896173 58.23044435 -6.34833253 57.46847984 -8.6953125 55.78125 C-15.32630273 49.92531058 -18.76733448 42.38900094 -19.4453125 33.609375 C-19.93910911 21.61049637 -17.9281982 12.0591117 -10.3671875 2.4609375 C-7.35283935 -0.76010881 -4.2003541 -0.35596221 0 0 Z M-6.5 5.1796875 C-13.80250538 13.43303993 -14.64728703 22.52996031 -14.28125 33.21875 C-13.64760051 41.73781535 -10.98979572 46.97143538 -5 53 C0.31272149 50.70535646 2.77339775 46.51453462 5.25 41.4375 C8.40449788 31.18538191 7.99155383 19.66194815 2.98046875 10.04296875 C1.51872567 7.79286986 -0.10373072 5.89626928 -2 4 C-4.92503528 3.69090845 -4.92503528 3.69090845 -6.5 5.1796875 Z " fill="white" transform="translate(105,17)"/>
</g>
<rect x="20" y="20" width="400" height="400" fill="none" stroke="gray" stroke-width="4" rx="50" ry="50" />
<text x="58" y="310" font-size="50" fill="white">LUANA BASSI</text>
<text x="100" y="360" font-size="35" fill="white">Arando Sentidos</text>
</svg>
