<?xml version="1.0" encoding="UTF-8"?>
<svg version="1.1" xmlns="http://www.w3.org/2000/svg" width="565" height="295">
<path d="" fill="#000000" transform="translate(0,0)"/>
<path d="M0 0 C1.25198685 -0.00101212 1.25198685 -0.00101212 2.52926636 -0.00204468 C72.85626218 0.08676775 140.10035564 13.53817994 195.9375 58.25 C196.57816406 58.76062988 197.21882813 59.27125977 197.87890625 59.79736328 C205.35719161 65.7697036 212.73951231 71.80222597 219.78515625 78.28515625 C221.7740504 80.1007892 223.81237118 81.83188386 225.875 83.5625 C241.65906162 97.40537662 257.60937388 117.12498394 259.11328125 138.78125 C259.12291417 140.60508267 259.04254791 142.4291696 258.9375 144.25 C254.60752539 142.89641554 252.77257753 141.20222237 250.125 137.5625 C247.00539474 133.48121191 243.80910156 130.17236621 239.87109375 126.89453125 C237.95287284 125.26307468 236.19746293 123.54987138 234.4375 121.75 C232.11799247 119.38520319 229.73426642 117.16300973 227.22265625 115.00390625 C223.00456876 111.33596197 218.93064028 107.53332468 214.875 103.6875 C213.3830337 102.27841158 211.89084169 100.86956212 210.3984375 99.4609375 C209.65432617 98.75807617 208.91021484 98.05521484 208.14355469 97.33105469 C202.96336026 92.44438168 197.76057363 87.58222937 192.5390625 82.73974609 C191.13453293 81.43327667 189.73843723 80.11775247 188.34375 78.80078125 C183.39348106 74.20528159 178.18573428 70.0222704 172.8125 65.9375 C171.82648804 65.18122314 171.82648804 65.18122314 170.82055664 64.40966797 C165.38629563 60.34670717 160.00700681 56.65926758 153.1875 55.75 C149.25923909 56.35434783 148.46278149 57.26961005 145.9375 60.25 C144.60571028 62.72270023 144.60571028 62.72270023 143.5625 65.484375 C143.14105713 66.52110352 142.71961426 67.55783203 142.28540039 68.62597656 C141.84059326 69.7394043 141.39578613 70.85283203 140.9375 72 C133.15212324 90.91242209 123.77341962 108.85419523 113.9453125 126.76953125 C113.45063477 127.6713916 112.95595703 128.57325195 112.44628906 129.50244141 C111.43477341 131.34444742 110.42107618 133.18525703 109.40527344 135.02490234 C103.64649486 145.50587936 98.40609697 156.00825756 94.1640625 167.19921875 C93.73847046 168.31441391 93.31287842 169.42960907 92.87438965 170.57859802 C87.54680964 184.71082852 82.92222704 199.07719926 78.26025391 213.43920898 C74.0402164 226.40974697 69.69420654 239.2855573 64.65625 251.96484375 C64.05882996 253.47577354 64.05882996 253.47577354 63.44934082 255.01722717 C56.84739524 271.29505238 56.84739524 271.29505238 52.9375 273.25 C36.26819218 221.42303636 49.29653924 171.62553502 73.36865234 124.2421875 C85.46979094 101.16226926 100.86407765 80.80753495 117.9375 61.25 C120.15147426 58.71316763 122.35929608 56.17118918 124.5625 53.625 C125.30729614 52.7738562 125.30729614 52.7738562 126.06713867 51.90551758 C128.71953758 48.83410121 130.89862513 45.75017945 132.9375 42.25 C129.02603775 40.81767646 125.11164103 39.3937807 121.19433594 37.97753906 C119.86277291 37.49480697 118.53203177 37.00980136 117.20214844 36.52246094 C115.28793671 35.8214417 113.37089607 35.12871299 111.453125 34.4375 C110.30102539 34.01855469 109.14892578 33.59960938 107.96191406 33.16796875 C104.82634643 32.05637591 104.82634643 32.05637591 100.9375 32.25 C99.32182685 34.28837834 98.02075599 36.22197537 96.6875 38.4375 C92.42202328 45.1763608 87.79818803 51.55303995 82.9375 57.875 C82.24124512 58.78121094 81.54499023 59.68742187 80.82763672 60.62109375 C79.4729846 62.3800004 78.1167627 64.13769944 76.75878906 65.89404297 C75.227488 67.87488148 73.70131592 69.85938742 72.1796875 71.84765625 C68.17040361 77.08089645 64.13036874 82.28922851 60.07568359 87.48730469 C57.65529062 90.59339747 55.2420721 93.70503378 52.82910156 96.81689453 C51.56894267 98.43779586 50.30526989 100.05597149 49.03808594 101.67138672 C18.27675455 140.9010765 -6.02002816 184.36723238 -27.38574219 229.3112793 C-51.14610901 279.2918045 -51.14610901 279.2918045 -63.0625 285.25 C-64.51006419 261.60645156 -58.71926225 237.75573002 -52.0625 215.25 C-51.73121094 214.12706543 -51.39992187 213.00413086 -51.05859375 211.84716797 C-41.93042172 181.51682069 -27.4648641 153.93804696 -9.0625 128.25 C-8.30864014 127.19329102 -8.30864014 127.19329102 -7.53955078 126.11523438 C-3.7452122 120.80386981 0.08720109 115.5209038 3.9375 110.25 C4.52499023 109.445625 5.11248047 108.64125 5.71777344 107.8125 C16.36639788 93.25342883 27.12006811 78.88789503 38.9375 65.25 C39.69933594 64.363125 40.46117187 63.47625 41.24609375 62.5625 C55.94768715 45.79062874 73.51824629 34.48682234 95.9375 31.25 C87.00606334 25.29570889 73.19056007 24.69630502 62.8125 23.125 C61.78511719 22.96660645 60.75773437 22.80821289 59.69921875 22.64501953 C40.52499565 19.8628888 21.35989667 18.86771635 2 18.9375 C0.93889008 18.93932281 -0.12221985 18.94114563 -1.21548462 18.94302368 C-85.97334689 19.18658304 -175.75136203 41.65376406 -237.4375 102.5 C-240.87319563 105.96889076 -244.1169001 109.54536176 -247.28515625 113.2578125 C-249.28812104 115.50289391 -251.4081077 117.58760329 -253.5625 119.6875 C-257.12489246 123.2018332 -260.17436014 126.86057025 -263.17578125 130.85546875 C-266.17837164 134.66620976 -269.49006629 138.18448135 -272.78515625 141.7421875 C-274.50726423 143.63857399 -276.08351224 145.52496255 -277.625 147.5625 C-281.81430161 152.18147357 -287.33412523 155.76344381 -293.0625 158.25 C-296.3125 158.375 -296.3125 158.375 -299.0625 158.25 C-295.65106947 151.90854125 -291.95527023 145.82781929 -288 139.8125 C-287.43418213 138.94850586 -286.86836426 138.08451172 -286.28540039 137.19433594 C-285.11642019 135.41182417 -283.94576616 133.63040898 -282.7734375 131.85009766 C-281.16621766 129.40761888 -279.56700134 126.96007091 -277.96875 124.51171875 C-269.03559855 110.89505405 -259.42552642 97.81744213 -249.0625 85.25 C-248.24265625 84.22712891 -248.24265625 84.22712891 -247.40625 83.18359375 C-242.60287777 77.39462391 -236.98813242 72.85182092 -231.0625 68.25 C-230.134375 67.5178125 -229.20625 66.785625 -228.25 66.03125 C-220.21593733 59.83104946 -211.78940094 54.41623317 -203.0625 49.25 C-201.93328125 48.58049316 -201.93328125 48.58049316 -200.78125 47.89746094 C-142.20840094 13.55912818 -67.23789166 0.04968296 0 0 Z " fill="#000000" transform="translate(303.0625,2.75)"/>
<path d="" fill="#000000" transform="translate(0,0)"/>
<path d="" fill="#000000" transform="translate(0,0)"/>
<path d="" fill="#000000" transform="translate(0,0)"/>
<path d="" fill="#000000" transform="translate(0,0)"/>
<path d="M0 0 C-9.12559781 10.59019993 -19.23290914 19.53806443 -30.25 28.07421875 C-35.66820415 32.27992753 -40.97014948 36.62836523 -46.27734375 40.97265625 C-48.41579971 42.72132586 -50.56486004 44.43506241 -52.75390625 46.12109375 C-67.64072771 57.69973266 -80.91476391 71.77368181 -92 87 C-93.10284569 88.48405549 -94.20710057 89.96706444 -95.3125 91.44921875 C-100.63973096 98.61482333 -105.88984476 105.83499267 -111.10253906 113.08422852 C-141.80382917 155.77394474 -141.80382917 155.77394474 -156 166 C-156.66 166 -157.32 166 -158 166 C-160.43130165 128.99018597 -139.46194711 95.52479868 -117 68 C-116.57106445 67.46955078 -116.14212891 66.93910156 -115.70019531 66.39257812 C-89.16588295 33.76747863 -53.8696981 4.55653693 -10.71875 -0.375 C-2.345 -1.1725 -2.345 -1.1725 0 0 Z " fill="#000000" transform="translate(350,29)"/>
<path d="" fill="#000000" transform="translate(0,0)"/>
<path d="M0 0 C-3.01329156 5.04726337 -6.48479968 8.40568969 -11 12.125 C-20.08815425 19.80670696 -28.5903764 27.95537033 -36.30859375 37.03125 C-38.23867842 39.27781507 -40.24418139 41.44583904 -42.25 43.625 C-46.79283455 48.65978279 -50.95720363 53.93750919 -55.109375 59.29296875 C-57.54595305 62.43342865 -60.03458307 65.52810922 -62.53759766 68.61572266 C-67.72176642 75.02164877 -72.64937307 81.54828529 -77.3828125 88.29296875 C-79.243282 90.94353003 -81.13786724 93.56568114 -83.0546875 96.17578125 C-91.13282057 107.18985902 -98.65338454 118.48779876 -106 130 C-107.3057562 132.04051395 -108.61175496 134.0808727 -109.91796875 136.12109375 C-111.95674546 139.30607033 -113.99463372 142.49159292 -116.02929688 145.67919922 C-119.26341008 150.74289199 -122.51100258 155.79647618 -125.80078125 160.82421875 C-126.69120117 162.18546875 -126.69120117 162.18546875 -127.59960938 163.57421875 C-128.70608551 165.26232031 -129.81527222 166.94864972 -130.92773438 168.6328125 C-133.56696333 172.65875498 -135.961219 176.63714783 -138 181 C-138.99 181 -139.98 181 -141 181 C-141.48781989 179.50279178 -141.96472363 178.00202636 -142.4375 176.5 C-142.70433594 175.6646875 -142.97117187 174.829375 -143.24609375 173.96875 C-150.23767877 146.43711987 -139.84763254 119.51522872 -126 96 C-122.91771117 91.1417312 -119.51041518 86.55483623 -116 82 C-115.33355469 81.12214844 -114.66710937 80.24429688 -113.98046875 79.33984375 C-101.32806585 63.07983107 -86.34753231 47.55129839 -70 35 C-68.99839844 34.20464844 -67.99679688 33.40929688 -66.96484375 32.58984375 C-48.60964552 18.08272501 -24.41759594 -0.56785107 0 0 Z " fill="#000000" transform="translate(260,30)"/>
<path d="" fill="#000000" transform="translate(0,0)"/>
<path d="" fill="#000000" transform="translate(0,0)"/>
<path d="" fill="#000000" transform="translate(0,0)"/>
<path d="" fill="#000000" transform="translate(0,0)"/>
<path d="" fill="#000000" transform="translate(0,0)"/>
<path d="" fill="#000000" transform="translate(0,0)"/>
<path d="" fill="#000000" transform="translate(0,0)"/>
<path d="" fill="#000000" transform="translate(0,0)"/>
<path d="" fill="#000000" transform="translate(0,0)"/>
<path d="" fill="#000000" transform="translate(0,0)"/>
<path d="" fill="#000000" transform="translate(0,0)"/>
<path d="" fill="#000000" transform="translate(0,0)"/>
<path d="" fill="#000000" transform="translate(0,0)"/>
<path d="" fill="#000000" transform="translate(0,0)"/>
<path d="" fill="#000000" transform="translate(0,0)"/>
<path d="" fill="#000000" transform="translate(0,0)"/>
<path d="" fill="#000000" transform="translate(0,0)"/>
<path d="" fill="#000000" transform="translate(0,0)"/>
<path d="" fill="#000000" transform="translate(0,0)"/>
<path d="" fill="#000000" transform="translate(0,0)"/>
<path d="" fill="#000000" transform="translate(0,0)"/>
<path d="" fill="#000000" transform="translate(0,0)"/>
<path d="" fill="#000000" transform="translate(0,0)"/>
<path d="" fill="#000000" transform="translate(0,0)"/>
<path d="" fill="#000000" transform="translate(0,0)"/>
<path d="" fill="#000000" transform="translate(0,0)"/>
<path d="" fill="#000000" transform="translate(0,0)"/>
<path d="" fill="#000000" transform="translate(0,0)"/>
<path d="" fill="#000000" transform="translate(0,0)"/>
<path d="" fill="#000000" transform="translate(0,0)"/>
<path d="" fill="#000000" transform="translate(0,0)"/>
<path d="" fill="#000000" transform="translate(0,0)"/>
<path d="" fill="#000000" transform="translate(0,0)"/>
<path d="" fill="#000000" transform="translate(0,0)"/>
<path d="" fill="#000000" transform="translate(0,0)"/>
<path d="" fill="#000000" transform="translate(0,0)"/>
<path d="" fill="#000000" transform="translate(0,0)"/>
<path d="" fill="#000000" transform="translate(0,0)"/>
<path d="" fill="#000000" transform="translate(0,0)"/>
<path d="" fill="#000000" transform="translate(0,0)"/>
<path d="" fill="#000000" transform="translate(0,0)"/>
<path d="" fill="#000000" transform="translate(0,0)"/>
<path d="" fill="#000000" transform="translate(0,0)"/>
<path d="" fill="#000000" transform="translate(0,0)"/>
<path d="" fill="#000000" transform="translate(0,0)"/>
<path d="" fill="#000000" transform="translate(0,0)"/>
<path d="" fill="#000000" transform="translate(0,0)"/>
<path d="" fill="#000000" transform="translate(0,0)"/>
<path d="" fill="#000000" transform="translate(0,0)"/>
<path d="" fill="#000000" transform="translate(0,0)"/>
<path d="" fill="#000000" transform="translate(0,0)"/>
<path d="" fill="#000000" transform="translate(0,0)"/>
<path d="" fill="#000000" transform="translate(0,0)"/>
<path d="" fill="#000000" transform="translate(0,0)"/>
<path d="" fill="#000000" transform="translate(0,0)"/>
<path d="" fill="#000000" transform="translate(0,0)"/>
<path d="" fill="#000000" transform="translate(0,0)"/>
<path d="" fill="#000000" transform="translate(0,0)"/>
<path d="" fill="#000000" transform="translate(0,0)"/>
<path d="" fill="#000000" transform="translate(0,0)"/>
<path d="" fill="#000000" transform="translate(0,0)"/>
<path d="" fill="#000000" transform="translate(0,0)"/>
<path d="" fill="#000000" transform="translate(0,0)"/>
<path d="" fill="#000000" transform="translate(0,0)"/>
<path d="" fill="#000000" transform="translate(0,0)"/>
<path d="" fill="#000000" transform="translate(0,0)"/>
<path d="" fill="#000000" transform="translate(0,0)"/>
<path d="" fill="#000000" transform="translate(0,0)"/>
<path d="" fill="#000000" transform="translate(0,0)"/>
<path d="" fill="#000000" transform="translate(0,0)"/>
<path d="" fill="#000000" transform="translate(0,0)"/>
<path d="" fill="#000000" transform="translate(0,0)"/>
<path d="" fill="#000000" transform="translate(0,0)"/>
<path d="" fill="#000000" transform="translate(0,0)"/>
<path d="" fill="#000000" transform="translate(0,0)"/>
<path d="" fill="#000000" transform="translate(0,0)"/>
<path d="" fill="#000000" transform="translate(0,0)"/>
<path d="" fill="#000000" transform="translate(0,0)"/>
<path d="" fill="#000000" transform="translate(0,0)"/>
<path d="" fill="#000000" transform="translate(0,0)"/>
<path d="" fill="#000000" transform="translate(0,0)"/>
<path d="" fill="#000000" transform="translate(0,0)"/>
</svg>
