<?xml version="1.0" encoding="UTF-8"?>
<svg xmlns="http://www.w3.org/2000/svg" xmlns:xlink="http://www.w3.org/1999/xlink" width="30px" height="30px" viewBox="0 0 30 30" version="1.1">
<g id="surface1">
<path style=" stroke:none;fill-rule:nonzero;fill:rgb(19.607843%,41.568628%,25.490198%);fill-opacity:1;" d="M 4.566406 -0.0390625 C 4.753906 -0.0429688 4.945312 -0.0429688 5.144531 -0.0429688 C 5.355469 -0.0429688 5.5625 -0.0429688 5.773438 -0.0429688 C 5.996094 -0.0429688 6.21875 -0.046875 6.441406 -0.046875 C 7.042969 -0.0507812 7.648438 -0.0507812 8.25 -0.0507812 C 8.628906 -0.0507812 9.003906 -0.0507812 9.382812 -0.0507812 C 10.699219 -0.0546875 12.015625 -0.0546875 13.335938 -0.0546875 C 14.5625 -0.0546875 15.785156 -0.0585938 17.011719 -0.0625 C 18.066406 -0.0664062 19.121094 -0.0703125 20.175781 -0.0703125 C 20.804688 -0.0703125 21.433594 -0.0703125 22.0625 -0.0742188 C 22.652344 -0.0742188 23.246094 -0.0742188 23.835938 -0.0742188 C 24.054688 -0.0742188 24.269531 -0.0742188 24.488281 -0.0742188 C 26.226562 -0.0898438 27.398438 0.175781 28.679688 1.371094 C 29.59375 2.320312 30.035156 3.222656 30.039062 4.566406 C 30.042969 4.851562 30.042969 4.851562 30.042969 5.144531 C 30.042969 5.355469 30.042969 5.5625 30.042969 5.773438 C 30.042969 5.996094 30.046875 6.21875 30.046875 6.441406 C 30.050781 7.042969 30.050781 7.648438 30.050781 8.25 C 30.050781 8.628906 30.050781 9.003906 30.050781 9.382812 C 30.054688 10.699219 30.054688 12.015625 30.054688 13.335938 C 30.054688 14.5625 30.058594 15.785156 30.0625 17.011719 C 30.066406 18.066406 30.070312 19.121094 30.070312 20.175781 C 30.070312 20.804688 30.070312 21.433594 30.074219 22.0625 C 30.074219 22.652344 30.074219 23.246094 30.074219 23.835938 C 30.074219 24.054688 30.074219 24.269531 30.074219 24.488281 C 30.089844 26.226562 29.824219 27.398438 28.628906 28.683594 C 27.679688 29.59375 26.777344 30.035156 25.433594 30.039062 C 25.148438 30.042969 25.148438 30.042969 24.855469 30.042969 C 24.644531 30.042969 24.4375 30.042969 24.226562 30.042969 C 24.003906 30.042969 23.78125 30.046875 23.558594 30.046875 C 22.957031 30.050781 22.351562 30.050781 21.75 30.050781 C 21.371094 30.050781 20.996094 30.050781 20.617188 30.050781 C 19.300781 30.054688 17.984375 30.054688 16.664062 30.054688 C 15.4375 30.054688 14.214844 30.058594 12.988281 30.0625 C 11.933594 30.066406 10.878906 30.070312 9.824219 30.070312 C 9.195312 30.070312 8.566406 30.070312 7.9375 30.074219 C 7.347656 30.074219 6.753906 30.074219 6.164062 30.074219 C 5.945312 30.074219 5.730469 30.074219 5.511719 30.074219 C 3.773438 30.089844 2.601562 29.824219 1.316406 28.628906 C 0.40625 27.679688 -0.0351562 26.777344 -0.0390625 25.433594 C -0.0429688 25.246094 -0.0429688 25.054688 -0.0429688 24.855469 C -0.0429688 24.644531 -0.0429688 24.4375 -0.0429688 24.226562 C -0.0429688 24.003906 -0.046875 23.78125 -0.046875 23.558594 C -0.0507812 22.957031 -0.0507812 22.351562 -0.0507812 21.75 C -0.0507812 21.371094 -0.0507812 20.996094 -0.0507812 20.617188 C -0.0546875 19.300781 -0.0546875 17.984375 -0.0546875 16.664062 C -0.0546875 15.4375 -0.0585938 14.214844 -0.0625 12.988281 C -0.0664062 11.933594 -0.0703125 10.878906 -0.0703125 9.824219 C -0.0703125 9.195312 -0.0703125 8.566406 -0.0742188 7.9375 C -0.0742188 7.347656 -0.0742188 6.753906 -0.0742188 6.164062 C -0.0742188 5.945312 -0.0742188 5.730469 -0.0742188 5.511719 C -0.0898438 3.773438 0.175781 2.601562 1.371094 1.320312 C 2.320312 0.40625 3.222656 -0.0351562 4.566406 -0.0390625 Z M 4.566406 -0.0390625 "/>
<path style=" stroke:none;fill-rule:nonzero;fill:rgb(93.725491%,94.509804%,93.725491%);fill-opacity:1;" d="M 5.785156 8.351562 C 6.703125 8.367188 7.410156 8.496094 8.25 8.851562 C 8.433594 8.914062 8.433594 8.914062 8.617188 8.976562 C 9.597656 9.324219 10.3125 9.832031 11.101562 10.5 C 11.191406 10.570312 11.28125 10.636719 11.375 10.710938 C 13.035156 12.007812 14.339844 14.355469 15 16.351562 C 15 16.546875 15 16.746094 15 16.949219 C 15.097656 16.949219 15.199219 16.949219 15.300781 16.949219 C 15.320312 16.761719 15.320312 16.761719 15.34375 16.566406 C 15.464844 15.984375 15.683594 15.507812 15.964844 14.992188 C 16.019531 14.894531 16.070312 14.796875 16.125 14.695312 C 17.644531 11.976562 19.902344 9.734375 22.949219 8.851562 C 23.496094 8.71875 24 8.679688 24.5625 8.679688 C 24.78125 8.679688 24.78125 8.679688 25 8.679688 C 25.351562 8.699219 25.351562 8.699219 25.5 8.851562 C 25.558594 9.664062 25.410156 10.320312 25.117188 11.070312 C 25.074219 11.175781 25.035156 11.28125 24.992188 11.390625 C 24.632812 12.289062 24.160156 13.046875 23.550781 13.800781 C 23.480469 13.894531 23.414062 13.984375 23.339844 14.082031 C 21.828125 16.023438 19.054688 17.34375 16.648438 17.699219 C 16.25 17.710938 15.851562 17.707031 15.449219 17.699219 C 15.480469 17.796875 15.507812 17.890625 15.539062 17.992188 C 15.675781 18.433594 15.8125 18.878906 15.945312 19.320312 C 16.015625 19.546875 16.015625 19.546875 16.085938 19.777344 C 16.226562 20.234375 16.363281 20.691406 16.5 21.148438 C 16.542969 21.296875 16.585938 21.441406 16.632812 21.589844 C 17.085938 23.160156 17.273438 24.882812 16.539062 26.402344 C 16.214844 26.914062 15.988281 27.144531 15.449219 27.449219 C 14.976562 27.550781 14.574219 27.558594 14.101562 27.449219 C 13.453125 26.988281 13.128906 26.398438 12.898438 25.648438 C 12.828125 25.15625 12.820312 24.667969 12.824219 24.167969 C 12.824219 24.03125 12.828125 23.890625 12.828125 23.75 C 12.878906 21.632812 13.671875 19.75 14.550781 17.851562 C 14.46875 17.855469 14.390625 17.863281 14.304688 17.871094 C 11.820312 17.984375 9.324219 16.957031 7.5 15.300781 C 5.875 13.769531 4.523438 11.410156 4.445312 9.121094 C 4.558594 8.273438 5.042969 8.355469 5.785156 8.351562 Z M 5.785156 8.351562 "/>
<path style=" stroke:none;fill-rule:nonzero;fill:rgb(19.607843%,41.568628%,25.882354%);fill-opacity:1;" d="M 5.25 9 C 7.054688 8.832031 9.136719 9.757812 10.527344 10.867188 C 11.523438 11.714844 12.28125 12.644531 12.898438 13.800781 C 12.953125 13.894531 13.003906 13.992188 13.058594 14.09375 C 13.226562 14.410156 13.390625 14.726562 13.554688 15.046875 C 13.609375 15.148438 13.660156 15.246094 13.714844 15.351562 C 14.003906 15.933594 14.179688 16.445312 14.25 17.101562 C 12.027344 17.09375 10.183594 16.527344 8.398438 15.148438 C 8.277344 15.058594 8.15625 14.96875 8.03125 14.878906 C 6.574219 13.621094 5.488281 11.441406 5.269531 9.535156 C 5.261719 9.359375 5.257812 9.183594 5.25 9 Z M 5.25 9 "/>
<path style=" stroke:none;fill-rule:nonzero;fill:rgb(19.607843%,41.568628%,25.882354%);fill-opacity:1;" d="M 15.75 2.550781 C 16.664062 3.027344 17.011719 4.027344 17.363281 4.945312 C 17.835938 6.511719 17.613281 8.132812 16.949219 9.601562 C 16.578125 10.273438 16.113281 10.851562 15.449219 11.25 C 15.011719 11.285156 14.796875 11.171875 14.445312 10.917969 C 13.449219 10.039062 12.933594 8.910156 12.832031 7.589844 C 12.757812 5.792969 13.0625 4.359375 14.195312 2.917969 C 14.648438 2.4375 15.121094 2.496094 15.75 2.550781 Z M 15.75 2.550781 "/>
<path style=" stroke:none;fill-rule:nonzero;fill:rgb(19.215687%,41.568628%,25.490198%);fill-opacity:1;" d="M 24.601562 9.449219 C 24.527344 10.34375 24.34375 11.023438 23.933594 11.820312 C 23.882812 11.925781 23.828125 12.03125 23.773438 12.136719 C 22.433594 14.644531 20.027344 16.082031 17.363281 16.902344 C 16.925781 16.980469 16.492188 16.957031 16.050781 16.949219 C 16.734375 14.21875 18.835938 11.84375 21.148438 10.351562 C 22.316406 9.722656 23.269531 9.425781 24.601562 9.449219 Z M 24.601562 9.449219 "/>
<path style=" stroke:none;fill-rule:nonzero;fill:rgb(20%,41.960785%,26.274511%);fill-opacity:1;" d="M 14.851562 19.050781 C 15.511719 19.8125 15.648438 20.796875 15.898438 21.75 C 15.933594 21.863281 15.96875 21.976562 16.003906 22.089844 C 16.390625 23.382812 16.394531 25.085938 15.804688 26.304688 C 15.449219 26.699219 15.449219 26.699219 14.925781 26.878906 C 14.398438 26.851562 14.398438 26.851562 14.042969 26.523438 C 13.25 25.148438 13.527344 23.078125 13.914062 21.601562 C 14.175781 20.730469 14.480469 19.882812 14.851562 19.050781 Z M 14.851562 19.050781 "/>
<path style=" stroke:none;fill-rule:nonzero;fill:rgb(93.725491%,94.509804%,94.117647%);fill-opacity:1;" d="M 15.75 2.550781 C 16.664062 3.027344 17.011719 4.027344 17.363281 4.945312 C 17.835938 6.511719 17.613281 8.132812 16.949219 9.601562 C 16.578125 10.273438 16.113281 10.851562 15.449219 11.25 C 15.011719 11.285156 14.796875 11.171875 14.445312 10.917969 C 13.449219 10.039062 12.933594 8.910156 12.832031 7.589844 C 12.757812 5.792969 13.0625 4.359375 14.195312 2.917969 C 14.648438 2.4375 15.121094 2.496094 15.75 2.550781 Z M 14.773438 3.328125 C 13.679688 4.566406 13.554688 5.929688 13.609375 7.53125 C 13.703125 8.8125 14.101562 9.597656 15 10.5 C 15.796875 10.15625 16.164062 9.527344 16.539062 8.765625 C 17.011719 7.226562 16.949219 5.5 16.195312 4.054688 C 15.976562 3.71875 15.734375 3.433594 15.449219 3.148438 C 15.011719 3.105469 15.011719 3.105469 14.773438 3.328125 Z M 14.773438 3.328125 "/>
<path style=" stroke:none;fill-rule:nonzero;fill:rgb(27.058825%,48.627451%,34.509805%);fill-opacity:1;" d="M 5.25 9 C 5.757812 8.980469 5.757812 8.980469 6.300781 9 C 6.398438 9.097656 6.496094 9.199219 6.601562 9.300781 C 6.253906 9.300781 5.90625 9.300781 5.550781 9.300781 C 5.5 9.496094 5.449219 9.695312 5.398438 9.898438 C 5.25 9.75 5.25 9.75 5.242188 9.367188 C 5.242188 9.246094 5.246094 9.125 5.25 9 Z M 5.25 9 "/>
</g>
</svg>
