<?xml version="1.0" encoding="UTF-8"?>
<svg version="1.1" xmlns="http://www.w3.org/2000/svg" width="200" height="200">
<path d="M0 0 C1.27419296 -0.00852997 2.54838593 -0.01705994 3.8611908 -0.02584839 C5.26078809 -0.02514946 6.66038528 -0.02422645 8.0599823 -0.02310181 C9.54378598 -0.02909059 11.02758655 -0.03589694 12.51138306 -0.04345703 C16.53218172 -0.06108923 20.55289521 -0.06581125 24.5737288 -0.0670886 C27.08883116 -0.0685124 29.60391201 -0.07278634 32.11900902 -0.07808304 C40.90208175 -0.09657451 49.68509387 -0.10475481 58.46818542 -0.10317993 C66.6411616 -0.10197895 74.81387352 -0.12307501 82.98678285 -0.15466726 C90.015449 -0.18086333 97.04402903 -0.19154583 104.07274359 -0.19026911 C108.26544632 -0.18976043 112.45791413 -0.19539126 116.65056801 -0.21662521 C120.59629201 -0.23606382 124.54155833 -0.23609409 128.48729897 -0.22159195 C129.92999443 -0.21950965 131.37271897 -0.22417011 132.81536484 -0.23631287 C144.41402507 -0.32756474 152.22270826 1.43083535 160.77946472 9.40805054 C166.86074253 15.72833053 169.8087942 21.75583625 169.83595276 30.69889832 C169.84874771 32.61018776 169.84874771 32.61018776 169.86180115 34.56008911 C169.86110222 35.9596864 169.86017921 37.3592836 169.85905457 38.75888062 C169.86504335 40.2426843 169.8718497 41.72648487 169.87940979 43.21028137 C169.89704199 47.23108004 169.90176401 51.25179352 169.90304136 55.27262712 C169.90446516 57.78772947 169.9087391 60.30281033 169.9140358 62.81790733 C169.93252727 71.60098007 169.94070757 80.38399218 169.93913269 89.16708374 C169.93793171 97.34005992 169.95902776 105.51277184 169.99062002 113.68568116 C170.01681609 120.71434732 170.02749858 127.74292734 170.02622187 134.77164191 C170.02571319 138.96434464 170.03134402 143.15681244 170.05257797 147.34946632 C170.07201658 151.29519032 170.07204685 155.24045665 170.05754471 159.18619728 C170.05546241 160.62889275 170.06012287 162.07161729 170.07226562 163.51426315 C170.1635175 175.11292339 168.40511741 182.92160657 160.42790222 191.47836304 C154.10762223 197.55964085 148.08011651 200.50769252 139.13705444 200.53485107 C137.225765 200.54764603 137.225765 200.54764603 135.27586365 200.56069946 C133.87626635 200.56000054 132.47666916 200.55907753 131.07707214 200.55795288 C129.59326846 200.56394166 128.10946789 200.57074801 126.62567139 200.57830811 C122.60487272 200.59594031 118.58415924 200.60066232 114.56332564 200.60193968 C112.04822329 200.60336347 109.53314243 200.60763741 107.01804543 200.61293411 C98.23497269 200.63142558 89.45196057 200.63960588 80.66886902 200.63803101 C72.49589284 200.63683002 64.32318092 200.65792608 56.15027159 200.68951833 C49.12160544 200.7157144 42.09302542 200.7263969 35.06431085 200.72512019 C30.87160812 200.72461151 26.67914032 200.73024234 22.48648643 200.75147629 C18.54076244 200.7709149 14.59549611 200.77094516 10.64975548 200.75644302 C9.20706001 200.75436072 7.76433547 200.75902118 6.32168961 200.77116394 C-5.27697063 200.86241581 -13.08565381 199.10401573 -21.64241028 191.12680054 C-27.72368809 184.80652054 -30.67173976 178.77901482 -30.69889832 169.83595276 C-30.70742828 168.5617598 -30.71595825 167.28756683 -30.7247467 165.97476196 C-30.72404778 164.57516467 -30.72312477 163.17556747 -30.72200012 161.77597046 C-30.7279889 160.29216678 -30.73479526 158.80836621 -30.74235535 157.3245697 C-30.75998755 153.30377103 -30.76470956 149.28305755 -30.76598692 145.26222396 C-30.76741072 142.7471216 -30.77168465 140.23204075 -30.77698135 137.71694374 C-30.79547282 128.93387101 -30.80365312 120.15085889 -30.80207825 111.36776733 C-30.80087726 103.19479116 -30.82197332 95.02207924 -30.85356557 86.84916991 C-30.87976164 79.82050376 -30.89044414 72.79192373 -30.88916743 65.76320916 C-30.88865875 61.57050643 -30.89428958 57.37803863 -30.91552353 53.18538475 C-30.93496214 49.23966075 -30.9349924 45.29439443 -30.92049026 41.34865379 C-30.91840796 39.90595833 -30.92306843 38.46323379 -30.93521118 37.02058792 C-31.02646305 25.42192769 -29.26806297 17.6132445 -21.29084778 9.05648804 C-14.97056778 2.97521023 -8.94306206 0.02715855 0 0 Z " fill="#326A41" transform="translate(30.431472778320313,-0.267425537109375)"/>
<path d="M0 0 C6.12748692 0.09369246 10.84067444 0.94304101 16.4375 3.3125 C17.65179688 3.73015625 17.65179688 3.73015625 18.890625 4.15625 C25.41000966 6.47603104 30.19494932 9.85535017 35.4375 14.3125 C36.04335937 14.77398437 36.64921875 15.23546875 37.2734375 15.7109375 C48.33309837 24.36850008 57.03456018 40.01098706 61.4375 53.3125 C61.4375 54.6325 61.4375 55.9525 61.4375 57.3125 C62.0975 57.3125 62.7575 57.3125 63.4375 57.3125 C63.57865234 56.04599609 63.57865234 56.04599609 63.72265625 54.75390625 C64.52897359 50.87212714 65.99638459 47.69880142 67.875 44.25 C68.22771973 43.59950684 68.58043945 42.94901367 68.94384766 42.27880859 C79.0645859 24.16361161 94.12732712 9.19675569 114.4375 3.3125 C118.07559625 2.4347371 121.44717645 2.17739102 125.1875 2.1875 C126.63382812 2.18363281 126.63382812 2.18363281 128.109375 2.1796875 C130.4375 2.3125 130.4375 2.3125 131.4375 3.3125 C131.83072088 8.74170765 130.82660461 13.11551739 128.875 18.125 C128.606875 18.82423584 128.33875 19.52347168 128.0625 20.24389648 C125.65680208 26.247748 122.51760423 31.28723401 118.4375 36.3125 C117.97859375 36.93253906 117.5196875 37.55257812 117.046875 38.19140625 C106.96006606 51.14773842 88.47768581 59.92655189 72.4375 62.3125 C69.76443045 62.38894473 67.1128004 62.35784407 64.4375 62.3125 C64.63384033 62.9516333 64.83018066 63.5907666 65.0324707 64.24926758 C65.94007268 67.20730859 66.84504642 70.16614774 67.75 73.125 C68.2130957 74.63223633 68.2130957 74.63223633 68.68554688 76.16992188 C69.6153638 79.21384888 70.52999286 82.2618515 71.4375 85.3125 C71.72939209 86.28034424 72.02128418 87.24818848 72.32202148 88.24536133 C75.35433785 98.7097015 76.59124178 110.19235583 71.69140625 120.31640625 C69.54730117 123.7296078 68.01345484 125.28837462 64.4375 127.3125 C61.27484332 127.98302792 58.59417298 128.0301909 55.4375 127.3125 C51.13556135 124.22632662 48.95781248 120.314647 47.4375 115.3125 C46.97056391 112.01151132 46.91362449 108.7681342 46.9375 105.4375 C46.94249512 104.51638428 46.94749023 103.59526855 46.95263672 102.64624023 C47.30600336 88.52254095 52.59288733 75.98586974 58.4375 63.3125 C57.90125 63.35890625 57.365 63.4053125 56.8125 63.453125 C40.24351926 64.21617017 23.59480571 57.36660193 11.4375 46.3125 C0.60318647 36.10148031 -8.40194727 20.37250131 -8.9375 5.125 C-8.18354967 -0.52962745 -4.94812956 0.01601336 0 0 Z " fill="#EFF1EF" transform="translate(38.5625,55.6875)"/>
<path d="M0 0 C12.03640786 -1.11966585 25.91595786 5.0417117 35.171875 12.4453125 C41.82716548 18.0963993 46.86430158 24.29167947 51 32 C51.34579102 32.64227539 51.69158203 33.28455078 52.04785156 33.94628906 C53.17495688 36.05948826 54.28011224 38.1824412 55.375 40.3125 C55.72143555 40.98240967 56.06787109 41.65231934 56.42480469 42.3425293 C58.3569681 46.22865836 59.52546802 49.62752673 60 54 C45.17932868 53.95795554 32.87996017 50.18652791 21 41 C20.18660156 40.40058594 19.37320313 39.80117187 18.53515625 39.18359375 C8.81978028 30.81549642 1.6004608 16.26342603 0.125 3.5625 C0.08375 2.386875 0.0425 1.21125 0 0 Z " fill="#326A42" transform="translate(35,60)"/>
<path d="M0 0 C6.0813791 3.18548429 8.40560665 9.84964619 10.7578125 15.97265625 C13.90204821 26.4017761 12.41725836 37.21892792 8 47 C5.51049601 51.47787407 2.43068233 55.3415906 -2 58 C-4.91896173 58.23044435 -6.34833253 57.46847984 -8.6953125 55.78125 C-15.32630273 49.92531058 -18.76733448 42.38900094 -19.4453125 33.609375 C-19.93910911 21.61049637 -17.9281982 12.0591117 -10.3671875 2.4609375 C-7.35283935 -0.76010881 -4.2003541 -0.35596221 0 0 Z " fill="#326A42" transform="translate(105,17)"/>
<path d="M0 0 C-0.48452104 5.96690986 -1.71230941 10.49788645 -4.4375 15.8125 C-4.79094482 16.504646 -5.14438965 17.19679199 -5.50854492 17.90991211 C-14.43277942 34.62468356 -30.49626823 44.21088914 -48.23828125 49.69140625 C-51.15034241 50.20150122 -54.0537764 50.05665815 -57 50 C-52.44523678 31.78094711 -38.43528053 15.96902831 -23 6 C-15.23312515 1.81168525 -8.85737719 -0.17367406 0 0 Z " fill="#316A41" transform="translate(164,63)"/>
<path d="M0 0 C4.41110824 5.07717302 5.31486689 11.64668962 7 18 C7.23074219 18.75023437 7.46148437 19.50046875 7.69921875 20.2734375 C10.26220087 28.88941993 10.28840276 40.2471635 6.375 48.375 C4 51 4 51 0.5 52.1875 C-3 52 -3 52 -5.375 49.8125 C-10.6631889 40.65986536 -8.81227003 26.85720351 -6.25 17 C-4.50108946 11.19736466 -2.45188216 5.54281871 0 0 Z " fill="#336B43" transform="translate(99,127)"/>
<path d="M0 0 C6.0813791 3.18548429 8.40560665 9.84964619 10.7578125 15.97265625 C13.90204821 26.4017761 12.41725836 37.21892792 8 47 C5.51049601 51.47787407 2.43068233 55.3415906 -2 58 C-4.91896173 58.23044435 -6.34833253 57.46847984 -8.6953125 55.78125 C-15.32630273 49.92531058 -18.76733448 42.38900094 -19.4453125 33.609375 C-19.93910911 21.61049637 -17.9281982 12.0591117 -10.3671875 2.4609375 C-7.35283935 -0.76010881 -4.2003541 -0.35596221 0 0 Z M-6.5 5.1796875 C-13.80250538 13.43303993 -14.64728703 22.52996031 -14.28125 33.21875 C-13.64760051 41.73781535 -10.98979572 46.97143538 -5 53 C0.31272149 50.70535646 2.77339775 46.51453462 5.25 41.4375 C8.40449788 31.18538191 7.99155383 19.66194815 2.98046875 10.04296875 C1.51872567 7.79286986 -0.10373072 5.89626928 -2 4 C-4.92503528 3.69090845 -4.92503528 3.69090845 -6.5 5.1796875 Z " fill="#EFF1F0" transform="translate(105,17)"/>
<path d="M0 0 C3.375 -0.125 3.375 -0.125 7 0 C7.66 0.66 8.32 1.32 9 2 C6.69 2 4.38 2 2 2 C1.67 3.32 1.34 4.64 1 6 C0 5 0 5 -0.0625 2.4375 C-0.041875 1.633125 -0.02125 0.82875 0 0 Z " fill="#457C58" transform="translate(35,60)"/>
</svg>
